HIERARCHY
ROOT Hips
{
  OFFSET 57.8838 95.319 338.509
  CHANNELS 6 Xposition Yposition Zposition Zrotation Xrotation Yrotation
  JOINT LeftUpLeg
  {
    OFFSET 8.64259 1.95398 -2.38835
    CHANNELS 3 Zrotation Xrotation Yrotation
    JOINT LeftLeg
    {
      OFFSET 43.7702 0 0
      CHANNELS 3 Zrotation Xrotation Yrotation
      JOINT LeftFoot
      {
        OFFSET 40.6238 0 0
        CHANNELS 3 Zrotation Xrotation Yrotation
        JOINT LeftToeBase
        {
          OFFSET 12.7242 0 0
          CHANNELS 3 Zrotation Xrotation Yrotation
          End Site
          {
            OFFSET 0 0 0
          }
        }
      }
    }
  }
  JOINT RightUpLeg
  {
    OFFSET -8.2249 1.95398 -2.59336
    CHANNELS 3 Zrotation Xrotation Yrotation
    JOINT RightLeg
    {
      OFFSET 43.5653 0 0
      CHANNELS 3 Zrotation Xrotation Yrotation
      JOINT RightFoot
      {
        OFFSET 40.6238 0 0
        CHANNELS 3 Zrotation Xrotation Yrotation
        JOINT RightToeBase
        {
          OFFSET 12.7242 0 0
          CHANNELS 3 Zrotation Xrotation Yrotation
          End Site
          {
            OFFSET 0 0 0
          }
        }
      }
    }
  }
  JOINT Spine
  {
    OFFSET 0.165834 0.87714 6.61349
    CHANNELS 3 Zrotation Xrotation Yrotation
    JOINT Spine1
    {
      OFFSET 7.38963 1.71661e-005 0
      CHANNELS 3 Zrotation Xrotation Yrotation
      JOINT Spine2
      {
        OFFSET 11.9445 1.14441e-005 0
        CHANNELS 3 Zrotation Xrotation Yrotation
        JOINT Spine3
        {
          OFFSET 14.7254 4.19617e-005 0
          CHANNELS 3 Zrotation Xrotation Yrotation
          JOINT Spine4
          {
            OFFSET 10.9679 0 0
            CHANNELS 3 Zrotation Xrotation Yrotation
            JOINT RightShoulder
            {
              OFFSET 2.46616 -1.6653 3.69651
              CHANNELS 3 Zrotation Xrotation Yrotation
              JOINT RightArm
              {
                OFFSET 13.0012 0 0
                CHANNELS 3 Zrotation Xrotation Yrotation
                JOINT RightForeArm
                {
                  OFFSET 28.7848 1.62311e-005 0
                  CHANNELS 3 Zrotation Xrotation Yrotation
                  JOINT RightHand
                  {
                    OFFSET 26.5688 1.62095e-005 0
                    CHANNELS 3 Zrotation Xrotation Yrotation
                    End Site
                    {
                      OFFSET 0 0 0
                    }
                  }
                }
              }
            }
            JOINT LeftShoulder
            {
              OFFSET 2.38034 -1.29275 -3.7523
              CHANNELS 3 Zrotation Xrotation Yrotation
              JOINT LeftArm
              {
                OFFSET 16.3182 6.07031e-005 0
                CHANNELS 3 Zrotation Xrotation Yrotation
                JOINT LeftForeArm
                {
                  OFFSET 27.0901 0 0
                  CHANNELS 3 Zrotation Xrotation Yrotation
                  JOINT LeftHand
                  {
                    OFFSET 24.5451 1.51738e-005 0
                    CHANNELS 3 Zrotation Xrotation Yrotation
                    End Site
                    {
                      OFFSET 0 0 0
                    }
                  }
                }
              }
            }
            JOINT Neck
            {
              OFFSET 5.0226 -0.0266342 0
              CHANNELS 3 Zrotation Xrotation Yrotation
              JOINT Head
              {
                OFFSET 6.69364 2.86102e-005 0
                CHANNELS 3 Zrotation Xrotation Yrotation
                End Site
                {
                  OFFSET 0 0 0
                }
              }
            }
          }
        }
      }
    }
  }
}
MOTION
Frames:	9
Frame Time:	0.0416667
-309.435 60.3193 320.514 93.4593 59.8462 92.4156 -129.849 -19.2526 157.719 76.3499 -1.27616 -90.4921 20.8003 40.6498 43.4793 51.6872 11.6712 13.1916 179.318 2.72132 114.979 -67.2194 64.1141 -22.6778 161.263 38.8468 -122.94 -128.376 -33.9475 112.358 -0.0375972 2.72055 -89.5213 21.4311 0.190693 0.937157 9.7598 0.231769 0.927847 -12.7727 -0.0997587 0.951145 7.23998 -0.0997449 0.951138 114.086 0.838148 -36.0403 95.8849 -18.4471 -3.85762 -153.302 -58.3205 -158.067 -22.2069 10.4352 -56.3939 -66.9157 -22.5591 120.776 -58.1636 38.9113 29.8059 24.5691 34.348 -66.5089 19.1142 -15.5975 -75.7092 -57.5002 -9.24747 -8.86322 -3.82585 -13.4013 -9.46504 
-309.697 60.212 320.803 93.4339 59.8592 92.4827 -129.887 -19.1249 157.441 79.0012 -1.26958 -90.4251 19.2386 38.579 46.0623 52.0671 11.8743 13.1607 179.48 2.35206 115.265 -67.2696 63.7139 -22.4624 161.601 37.7989 -123.416 -127.763 -34.2128 112.597 -0.0426191 2.71632 -89.533 21.4396 0.174467 0.916984 9.76835 0.214662 0.908415 -12.7642 -0.109181 0.927032 7.24841 -0.109172 0.927021 114.063 0.870408 -36.0781 95.8584 -18.3893 -3.87642 -154.411 -56.7945 -159.002 -22.0149 10.2756 -56.1125 -66.8924 -22.6083 120.808 -58.3721 39.2231 30.2355 23.5326 33.5428 -66.1755 18.8521 -15.5032 -76.057 -57.4463 -9.27891 -8.78021 -3.83237 -13.3935 -9.42221 
-310.497 59.8842 321.688 93.3533 59.9015 92.6924 -130.031 -18.6795 156.537 86.9564 -1.16941 -90.2376 15.1172 32.1184 53.1572 52.9359 12.3356 13.0775 179.982 1.2293 116.139 -67.3585 62.4819 -21.8413 162.498 34.5705 -124.75 -125.788 -35.0738 113.392 -0.0585522 2.70339 -89.5691 21.4658 0.123677 0.854819 9.79458 0.161176 0.848552 -12.7384 -0.138942 0.85247 7.27429 -0.138928 0.85247 113.992 0.967895 -36.1934 95.7757 -18.2244 -3.92939 -157.114 -52.3671 -161.207 -21.395 9.80211 -55.3502 -66.8206 -22.7598 120.904 -59.057 40.1748 31.5936 20.2628 30.988 -65.2353 17.9772 -15.1573 -77.1528 -57.2767 -9.37738 -8.52141 -3.85661 -13.3702 -9.2924 
-311.767 59.3644 323.097 93.2183 59.9744 93.0352 -130.415 -17.7188 154.936 93.2337 -0.812819 -90.289 10.5065 27.579 61.639 53.4839 12.5992 12.897 -179.195 -0.54894 117.52 -67.2741 60.5136 -20.9635 163.538 29.4064 -126.539 -122.35 -36.5787 114.874 -0.08486 2.68283 -89.6273 21.5075 0.0406094 0.755101 9.8363 0.0737965 0.752585 -12.6972 -0.188204 0.732397 7.31548 -0.188199 0.732396 113.881 1.1205 -36.3749 95.6411 -17.9876 -4.00441 -159.998 -46.1537 -163.41 -20.3743 9.1149 -54.4147 -66.7051 -23.0024 121.058 -60.2994 41.675 33.8905 14.7145 26.6439 -64.0235 16.3421 -14.3986 -78.974 -56.9948 -9.5391 -8.0966 -3.90804 -13.3339 -9.09398 
-313.45 58.6851 324.963 93.0266 60.0796 93.5067 -131.24 -15.8836 152.606 93.3144 -0.151269 -90.9163 6.2016 28.4455 69.4443 52.8236 12.1178 12.3083 -178.022 -2.93151 119.341 -66.6792 57.913 -20.0161 164.312 22.5657 -128.431 -117.217 -38.7768 117.302 -0.121309 2.65536 -89.706 21.563 -0.0734947 0.621037 9.89193 -0.0460988 0.623668 -12.6422 -0.256752 0.570249 7.37044 -0.256744 0.570239 113.736 1.32048 -36.6137 95.4565 -17.7086 -4.09238 -162.359 -39.3505 -165.051 -19.0712 8.33907 -53.5734 -66.5494 -23.327 121.264 -62.2728 43.6281 37.2347 6.50811 20.3466 -63.0897 13.6606 -12.8948 -81.4599 -56.5981 -9.76242 -7.50649 -4.00053 -13.2861 -8.84806 
-315.482 57.9084 327.187 92.775 60.2188 94.1037 -132.695 -12.7421 149.749 171.912 -2.15402 -91.376 5.55151 -46.3065 100.819 50.092 10.33 10.5066 -176.444 -5.84539 121.551 -65.2263 54.8605 -19.2181 164.538 14.4602 -130.258 -110.153 -41.5908 121.03 -0.167785 2.62168 -89.8033 21.6308 -0.217451 0.455784 9.95982 -0.197181 0.464908 -12.575 -0.344375 0.369363 7.43762 -0.344383 0.369358 113.563 1.56048 -36.9007 95.2236 -17.4156 -4.1855 -164.058 -32.9117 -166.115 -17.677 7.59012 -52.9648 -66.3562 -23.725 121.519 -65.2281 45.899 41.8048 -5.12487 12.0705 -63.3673 9.56852 -10.1249 -84.3045 -56.081 -10.0451 -6.7487 -4.15051 -13.2277 -8.57869 
-317.801 57.1347 329.652 92.4585 60.3934 94.824 -134.889 -7.95663 146.887 -108.672 -3.69698 -85.8088 -167.992 -54.1816 -76.0833 44.2363 6.84027 6.14437 -174.307 -9.29829 124.105 -62.3548 51.5024 -18.7123 163.931 5.59047 -131.904 -101.121 -44.7037 126.368 -0.224108 2.58253 -89.9177 21.7094 -0.389976 0.262645 10.0385 -0.378053 0.279549 -12.4971 -0.450882 0.133304 7.51555 -0.450885 0.133291 113.369 1.8332 -37.2268 94.9438 -17.1353 -4.27711 -165.186 -27.3421 -166.756 -16.3604 6.93585 -52.5993 -66.1287 -24.187 121.818 -69.4822 48.2886 47.8396 -21.1309 2.62864 -66.3163 3.89797 -5.48491 -86.3718 -55.4358 -10.3833 -5.81927 -4.37615 -13.1589 -8.31149 
-320.363 56.4499 332.281 92.0707 60.6046 95.6664 -137.846 -1.45848 144.52 -106.291 -5.6383 -81.2501 -157.994 -54.6511 -55.906 33.1165 1.79341 -2.13035 -171.47 -13.2126 127.004 -57.7232 47.9684 -18.5648 162.375 -3.50956 -133.369 -90.5006 -47.5988 133.315 -0.289997 2.53867 -90.0473 21.7971 -0.589705 0.0449816 10.1263 -0.587147 0.0708872 -12.4099 -0.57597 -0.134327 7.60279 -0.57596 -0.134347 113.158 2.13158 -37.583 94.6185 -16.8922 -4.36177 -165.882 -22.745 -167.12 -15.2061 6.39355 -52.4223 -65.8697 -24.7037 122.156 -75.3782 50.4964 55.5994 -41.2193 -5.26114 -73.1867 -2.77061 0.251407 -85.6768 -54.6535 -10.7713 -4.71407 -4.69523 -13.0789 -8.07049 
-323.148 55.8647 335.066 91.6042 60.8529 96.6312 -141.593 6.66364 142.646 -96.9295 -5.38013 -73.2064 -147.58 -51.664 -39.8049 12.5269 -3.44906 -14.4301 -167.826 -17.4651 130.308 -51.2333 44.3246 -18.7581 159.887 -12.4172 -134.687 -79.0666 -49.8091 141.433 -0.365212 2.49052 -90.1906 21.8928 -0.815154 -0.193884 10.2221 -0.8229 -0.157817 -12.3146 -0.719193 -0.429925 7.69807 -0.719203 -0.429914 112.937 2.44885 -37.961 94.2485 -16.7083 -4.43502 -166.264 -19.0332 -167.304 -14.2314 5.95417 -52.3741 -65.5819 -25.2667 122.53 -83.1103 52.1361 65.1954 -62.1349 -8.17017 -82.8943 -9.19038 5.51305 -82.2297 -53.7246 -11.2007 -3.43001 -5.12351 -12.9863 -7.87593 
